<?xml version="1.0" encoding="UTF-8"?>
<svg id="Layer_1" xmlns="http://www.w3.org/2000/svg" version="1.1" viewBox="0 0 108.44 122.88">
  <!-- Generator: Adobe Illustrator 29.6.1, SVG Export Plug-In . SVG Version: 2.1.1 Build 9)  -->
  <defs>
    <style>
      .st0 {
        fill: #9401ad;
      }

      .st0, .st1, .st2 {
        fill-rule: evenodd;
      }

      .st1 {
        fill: #fff;
      }

      .st2 {
        fill: #6e0384;
      }
    </style>
  </defs>
  <path class="st0" d="M94.98,23.66c-.09-.62-.63-.96-1.08-1-.45-.04-9.19-.17-9.19-.17,0,0-7.32-7.1-8.04-7.83-.72-.72-2.13-.5-2.68-.34-.01,0-1.37.43-3.68,1.14-.38-1.25-.95-2.78-1.76-4.32-2.6-4.97-6.42-7.6-11.03-7.61h-.02c-.32,0-.64.03-.96.06-.14-.16-.27-.32-.42-.48C54.11.96,51.54-.08,48.45.01c-5.95.17-11.88,4.47-16.69,12.11-3.38,5.37-5.96,12.12-6.69,17.35-6.83,2.12-11.61,3.6-11.72,3.63-3.45,1.08-3.56,1.19-4.01,4.44-.31,2.45-9.34,72.26-9.34,72.26l75.65,13.08,32.79-8.15s-13.38-90.45-13.46-91.07h0ZM66.52,16.63c-1.74.54-3.72,1.15-5.87,1.82-.04-3.01-.4-7.21-1.81-10.83,4.52.85,6.74,5.96,7.68,9.01h0ZM56.69,19.68c-3.96,1.23-8.29,2.57-12.63,3.91,1.22-4.67,3.54-9.33,6.38-12.38,1.06-1.14,2.54-2.4,4.29-3.12,1.65,3.43,2,8.3,1.96,11.59h0ZM48.58,3.97c1.4-.03,2.57.28,3.58.94-1.61.83-3.16,2.03-4.62,3.59-3.78,4.06-6.68,10.35-7.83,16.43-3.6,1.11-7.13,2.21-10.37,3.21,2.04-9.56,10.06-23.91,19.24-24.17h0Z"/>
  <path class="st2" d="M93.9,22.66c-.45-.04-9.19-.17-9.19-.17,0,0-7.32-7.1-8.04-7.83-.27-.27-.63-.41-1.02-.47v108.68l32.78-8.15s-13.38-90.44-13.46-91.06c-.07-.62-.62-.96-1.07-1h0Z"/>
  <path class="st1" d="M57.48,39.52l-3.81,14.25s-4.25-1.93-9.28-1.62c-7.38.47-7.46,5.12-7.39,6.29.4,6.37,17.16,7.76,18.11,22.69.74,11.74-6.23,19.77-16.27,20.41-12.05.76-18.69-6.35-18.69-6.35l2.55-10.86s6.68,5.04,12.02,4.7c3.49-.22,4.74-3.06,4.61-5.07-.52-8.31-14.18-7.82-15.04-21.48-.73-11.49,6.82-23.14,23.48-24.19,6.43-.41,9.71,1.23,9.71,1.23h0Z"/>
</svg>